<?xml version="1.0" encoding="UTF-8" standalone="no"?>
<!-- Created with Inkscape (http://www.inkscape.org/) -->

<svg
   version="1.1"
   id="svg75018"
   width="800"
   height="800"
   viewBox="0 0 800 800"
   sodipodi:docname="sea-lion-vector-clipart-pdv.svg"
   inkscape:version="1.2 (dc2aedaf03, 2022-05-15)"
   xmlns:inkscape="http://www.inkscape.org/namespaces/inkscape"
   xmlns:sodipodi="http://sodipodi.sourceforge.net/DTD/sodipodi-0.dtd"
   xmlns="http://www.w3.org/2000/svg"
   xmlns:svg="http://www.w3.org/2000/svg">
  <defs
     id="defs75022">
    <clipPath
       clipPathUnits="userSpaceOnUse"
       id="clipPath75034">
      <path
         d="M 0,600 H 600 V 0 H 0 Z"
         id="path75032" />
    </clipPath>
  </defs>
  <sodipodi:namedview
     id="namedview75020"
     pagecolor="#ffffff"
     bordercolor="#000000"
     borderopacity="0.25"
     inkscape:showpageshadow="2"
     inkscape:pageopacity="0.0"
     inkscape:pagecheckerboard="0"
     inkscape:deskcolor="#d1d1d1"
     showgrid="false"
     inkscape:zoom="1.04625"
     inkscape:cx="400"
     inkscape:cy="400.4779"
     inkscape:window-width="1920"
     inkscape:window-height="1017"
     inkscape:window-x="-8"
     inkscape:window-y="-8"
     inkscape:window-maximized="1"
     inkscape:current-layer="g75026">
    <inkscape:page
       x="0"
       y="0"
       id="page75024"
       width="800"
       height="800" />
  </sodipodi:namedview>
  <g
     id="g75026"
     inkscape:groupmode="layer"
     inkscape:label="Page 1"
     transform="matrix(1.3333333,0,0,-1.3333333,0,800)">
    <g
       id="g75028">
      <g
         id="g75030"
         clip-path="url(#clipPath75034)">
        <g
           id="g75036"
           transform="translate(307.292,111.8506)">
          <path
             d="m 0,0 c 136.398,0 247.643,30.554 247.643,68.018 0,37.465 -111.245,68.019 -247.643,68.019 -136.397,0 -247.642,-30.554 -247.642,-68.019 C -247.642,30.554 -136.397,0 0,0"
             style="fill:#e6e6e6;fill-opacity:1;fill-rule:evenodd;stroke:none"
             id="path75038" />
        </g>
        <g
           id="g75040"
           transform="translate(262.083,437.8091)">
          <path
             d="m 0,0 c 59.604,-11.223 104.699,-63.542 104.699,-126.407 0,-71.05 -57.597,-128.646 -128.647,-128.646 -67.334,0 -122.578,51.735 -128.172,117.623 -15.494,17.963 -24.863,41.353 -24.863,66.937 0,7.141 0.732,14.114 2.121,20.843 -13.647,13.314 -21.923,30.763 -21.923,49.87 0,41.786 39.574,75.662 88.391,75.662 41.714,0 76.675,-24.739 85.965,-58.01 C -14.133,12.977 -6.583,6.951 0,0"
             style="fill:#92b6d9;fill-opacity:1;fill-rule:evenodd;stroke:none"
             id="path75042" />
        </g>
        <g
           id="g75044"
           transform="translate(262.083,437.8091)">
          <path
             d="m 0,0 c 9.026,-1.699 17.716,-4.347 25.97,-7.826 -46.202,2.979 -90.504,-39.08 -135.755,-58.605 2.605,6.066 5.209,12.133 7.815,18.199 20.617,0.51 78.633,34.733 68.676,88.357 4.924,-6.777 8.635,-14.268 10.865,-22.253 C -14.133,12.977 -6.583,6.951 0,0"
             style="fill:#749bc2;fill-opacity:1;fill-rule:evenodd;stroke:none"
             id="path75046" />
        </g>
        <g
           id="g75048"
           transform="translate(168.5225,231.833)">
          <path
             d="m 0,0 c -6.158,-18.025 -12.287,-38.543 -31.039,-46.227 -57.986,-23.764 -83.632,-14.083 -87.169,6.605 5.054,-2.255 10.896,-2.83 17.711,-1.343 -1.38,2.05 -2.02,4.684 -1.861,7.946 5.744,-1.907 11.756,-2.771 18.161,-2.147 -0.876,2.916 -0.334,5.614 1.649,8.091 3.732,-2.997 8.432,-3.719 14.034,-2.312 0.09,2.743 0.847,5.293 2.476,7.594 0.521,-0.211 1.044,-0.425 1.563,-0.636 4.004,-1.63 8.142,-1.333 11.865,0.86 3.726,2.19 6,5.661 6.518,9.949 1.607,13.228 3.214,26.457 4.82,39.686 C -27.516,18.712 -13.756,9.357 0,0"
             style="fill:#92b6d9;fill-opacity:1;fill-rule:evenodd;stroke:none"
             id="path75050" />
        </g>
        <g
           id="g75052"
           transform="translate(65.9214,447.0088)">
          <path
             d="m 0,0 c 1.849,13.386 7.778,25.699 16.695,36.007 3.47,-3.826 5.588,-8.902 5.588,-14.475 C 22.283,9.633 12.635,-0.015 0.736,-0.015 0.49,-0.015 0.245,-0.006 0,0"
             style="fill:#5b83ab;fill-opacity:1;fill-rule:evenodd;stroke:none"
             id="path75054" />
        </g>
        <g
           id="g75056"
           transform="translate(222.7266,183.6787)">
          <path
             d="m 0,0 c -63.785,7.614 -113.238,61.89 -113.238,127.724 0,3.679 0.163,7.324 0.467,10.925 16.55,-11.693 40.952,-17.675 74.583,-16.946 C -55.25,114.645 -76.98,109.548 -98.446,113.945 -86.322,89.167 -56.521,88.73 -27.621,91.326 -43.05,81.35 -59.517,74.884 -78.469,76.798 -64.241,63.293 -19.391,63.896 14.313,69.863 -0.209,45.713 -2.552,28.426 0,0"
             style="fill:#749bc2;fill-opacity:1;fill-rule:evenodd;stroke:none"
             id="path75058" />
        </g>
        <g
           id="g75060"
           transform="translate(127.125,366.73)">
          <path
             d="m 0,0 c 20.446,0 37.122,7.878 37.122,17.536 0,9.658 -16.676,17.536 -37.122,17.536 -20.448,0 -37.124,-7.878 -37.124,-17.536 C -37.124,7.878 -20.448,0 0,0"
             style="fill:#749bc2;fill-opacity:1;fill-rule:evenodd;stroke:none"
             id="path75062" />
        </g>
        <g
           id="g75064"
           transform="translate(136.0381,402.5928)">
          <path
             d="m 0,0 c -11.871,-39.251 -7.825,-68.824 8.156,-91.138 -0.41,28.107 2.063,56.039 14.095,83.406 C 14.833,-5.154 7.416,-2.577 0,0"
             style="fill:#e2ebf5;fill-opacity:1;fill-rule:evenodd;stroke:none"
             id="path75066" />
        </g>
        <g
           id="g75068"
           transform="translate(136.0381,402.5928)">
          <path
             d="M 0,0 C -0.977,-3.234 -1.847,-6.401 -2.608,-9.505 -0.675,-13.861 4.68,-17.923 9.868,-19.745 3.287,-45.401 4.023,-68.797 8.156,-91.138 7.746,-63.031 10.219,-35.099 22.251,-7.732 14.833,-5.154 7.416,-2.577 0,0"
             style="fill:#cedded;fill-opacity:1;fill-rule:evenodd;stroke:none"
             id="path75070" />
        </g>
        <g
           id="g75072"
           transform="translate(132.7856,347.3594)">
          <path
             d="M 0,0 C -2.288,11.478 -2.079,24.178 0.921,38.235 0.615,25.489 0.307,12.744 0,0"
             style="fill:#ffffff;fill-opacity:1;fill-rule:evenodd;stroke:none"
             id="path75074" />
        </g>
        <g
           id="g75076"
           transform="translate(507.959,228.0107)">
          <path
             d="m 0,0 c 0,-22.868 -20.262,-45.255 -45.255,-45.255 h -224.569 l 85.942,224.376 C -133.588,133.941 -90.703,56.361 -32.999,43.578 -15.602,39.725 0,26.863 0,0"
             style="fill:#92b6d9;fill-opacity:1;fill-rule:evenodd;stroke:none"
             id="path75078" />
        </g>
        <g
           id="g75080"
           transform="translate(462.7041,182.7559)">
          <path
             d="m 0,0 h -198.522 c 2.013,17.049 15.405,32.695 30.97,32.649 C -126.141,2.096 -36.072,31.462 5.47,38.595 8.807,24.55 3.156,8.649 0,0"
             style="fill:#749bc2;fill-opacity:1;fill-rule:evenodd;stroke:none"
             id="path75082" />
        </g>
        <g
           id="g75084"
           transform="translate(86.3901,392.8447)">
          <path
             d="M 0,0 C -4.219,-23.466 0.366,-41.145 11.558,-54.484 9.251,-37.683 8.684,-20.985 13.867,-4.623 9.244,-3.083 4.621,-1.542 0,0"
             style="fill:#e2ebf5;fill-opacity:1;fill-rule:evenodd;stroke:none"
             id="path75086" />
        </g>
        <g
           id="g75088"
           transform="translate(86.3901,392.8447)">
          <path
             d="m 0,0 c -0.347,-1.935 -0.634,-3.828 -0.864,-5.684 1.477,-2.604 4.975,-5.03 8.211,-6.123 -2.056,-15.337 0.1,-29.319 4.211,-42.677 -2.307,16.801 -2.874,33.499 2.309,49.861 C 9.244,-3.083 4.621,-1.542 0,0"
             style="fill:#cedded;fill-opacity:1;fill-rule:evenodd;stroke:none"
             id="path75090" />
        </g>
        <g
           id="g75092"
           transform="translate(88.4971,359.8228)">
          <path
             d="M 0,0 C -2.213,6.863 -3.017,14.454 -2.255,22.857 -1.504,15.239 -0.753,7.621 0,0"
             style="fill:#ffffff;fill-opacity:1;fill-rule:evenodd;stroke:none"
             id="path75094" />
        </g>
        <g
           id="g75096"
           transform="translate(100.6548,432.3452)">
          <path
             d="M 0,0 C -6.619,-42.04 53.035,-69.979 89.813,-17.501 63.969,-36.049 17.729,-37.271 0,0"
             style="fill:#5b83ab;fill-opacity:1;fill-rule:evenodd;stroke:none"
             id="path75098" />
        </g>
        <g
           id="g75100"
           transform="translate(87.2334,388.1465)">
          <path
             d="m 0,0 c -4.849,4.727 -9.02,9.978 -12.384,15.641 6.269,-8.933 23.734,-10.729 32.495,-0.18 2.724,0.169 5.447,0.336 8.171,0.506 C 28.874,12.568 29.466,9.166 30.06,5.765 24.286,-1.891 8.627,-5.033 0,0"
             style="fill:#5b83ab;fill-opacity:1;fill-rule:evenodd;stroke:none"
             id="path75102" />
        </g>
        <g
           id="g75104"
           transform="translate(149.3716,435.9346)">
          <path
             d="M 0,0 C 11.867,0 21.546,9.679 21.546,21.544 21.546,33.411 11.867,43.09 0,43.09 -11.867,43.09 -21.544,33.411 -21.544,21.544 -21.544,9.679 -11.867,0 0,0"
             style="fill:#5b83ab;fill-opacity:1;fill-rule:evenodd;stroke:none"
             id="path75106" />
        </g>
        <g
           id="g75108"
           transform="translate(146.3384,449.8896)">
          <path
             d="m 0,0 c 8.593,0 15.601,7.007 15.601,15.601 0,8.593 -7.008,15.603 -15.601,15.603 -8.593,0 -15.603,-7.01 -15.603,-15.603 C -15.603,7.007 -8.593,0 0,0"
             style="fill:#92b6d9;fill-opacity:1;fill-rule:evenodd;stroke:none"
             id="path75110" />
        </g>
        <g
           id="g75112"
           transform="translate(149.6206,438.2441)">
          <path
             d="m 0,0 c 8.093,0 14.693,6.6 14.693,14.695 0,8.094 -6.6,14.696 -14.693,14.696 -8.095,0 -14.697,-6.602 -14.697,-14.696 C -14.697,6.6 -8.095,0 0,0"
             style="fill:#5b83ab;fill-opacity:1;fill-rule:evenodd;stroke:none"
             id="path75114" />
        </g>
        <g
           id="g75116"
           transform="translate(160.0718,457.8135)">
          <path
             d="m 0,0 c -1.184,-4.167 -5.701,-7.267 -11.093,-7.267 -3.968,0 -7.464,1.68 -9.504,4.229 2.785,2.26 7.904,3.778 13.761,3.778 C -4.391,0.74 -2.075,0.473 0,0"
             style="fill:#ffffff;fill-opacity:1;fill-rule:evenodd;stroke:none"
             id="path75118" />
        </g>
        <g
           id="g75120"
           transform="translate(145.7676,457.6626)">
          <path
             d="M 0,0 C 2.029,0.517 4.319,0.831 6.752,0.883 6.861,0.546 6.92,0.186 6.92,-0.188 6.92,-2.1 5.37,-3.65 3.456,-3.65 c -1.913,0 -3.46,1.55 -3.46,3.462 0,0.063 0,0.126 0.004,0.188"
             style="fill:#000000;fill-opacity:1;fill-rule:evenodd;stroke:none"
             id="path75122" />
        </g>
        <g
           id="g75124"
           transform="translate(102.5835,412.4619)">
          <path
             d="M 0,0 C -15.139,5.175 -14.811,23.247 -1.929,19.883 12.404,26.541 22.65,10.238 0,0"
             style="fill:#000000;fill-opacity:1;fill-rule:evenodd;stroke:none"
             id="path75126" />
        </g>
        <g
           id="g75128"
           transform="translate(72.9688,468.896)">
          <path
             d="M 0,0 C 3.671,7.02 8.558,13.476 14.428,19.169 14.7,18.019 14.842,16.818 14.842,15.58 14.842,7.219 8.265,0.396 0,0"
             style="fill:#92b6d9;fill-opacity:1;fill-rule:evenodd;stroke:none"
             id="path75130" />
        </g>
        <g
           id="g75132"
           transform="translate(67.2979,454.0732)">
          <path
             d="m 0,0 c 2.205,8.737 6.169,16.915 11.566,24.242 0.36,-1.562 0.55,-3.192 0.55,-4.863 C 12.116,10.861 7.173,3.498 0,0"
             style="fill:#5b83ab;fill-opacity:1;fill-rule:evenodd;stroke:none"
             id="path75134" />
        </g>
        <g
           id="g75136"
           transform="translate(69.7163,462.3257)">
          <path
             d="m 0,0 c 1.357,-1.525 3.06,-2.433 4.907,-2.433 2.801,0 5.265,2.083 6.705,5.24 C 9.895,5.254 6.922,6.997 3.443,7.398 2.15,4.997 0.998,2.529 0,0"
             style="fill:#ffffff;fill-opacity:1;fill-rule:evenodd;stroke:none"
             id="path75138" />
        </g>
        <g
           id="g75140"
           transform="translate(76.8911,468.71)">
          <path
             d="m 0,0 c -1.142,0.51 -2.399,0.859 -3.732,1.014 -0.376,-0.702 -0.747,-1.409 -1.1,-2.123 0.23,-1.947 1.213,-3.411 2.391,-3.411 1.349,0 2.444,1.919 2.444,4.288 C 0.003,-0.153 0,-0.078 0,0"
             style="fill:#000000;fill-opacity:1;fill-rule:evenodd;stroke:none"
             id="path75142" />
        </g>
        <g
           id="g75144"
           transform="translate(176.8125,265.3506)">
          <path
             d="M 0,0 C -48.161,5.052 -86.395,43.439 -91.203,91.673 -81.229,57.73 -50.663,38.762 7.726,40.031 -9.336,32.974 -31.066,27.876 -52.532,32.273 -40.408,7.495 -10.607,7.058 18.294,9.654 12.376,5.828 6.305,2.519 0,0"
             style="fill:#749bc2;fill-opacity:1;fill-rule:evenodd;stroke:none"
             id="path75146" />
        </g>
        <g
           id="g75148"
           transform="translate(222.7266,183.6787)">
          <path
             d="m 0,0 c 4.996,-55.413 36.729,-73.184 95.771,-52.508 -8.671,0.326 -17.088,2.22 -24.991,7.279 6.734,-0.037 12.179,1.76 13.954,8.77 -9.838,-1.586 -19,1.561 -28.063,5.389 7.84,-0.936 13.844,0.665 17.062,6.112 -8.781,-0.236 -16.617,2.359 -23.418,8.068 4.519,0.132 8.864,0.634 11.61,4.525 -8.408,0.981 -14.149,5.966 -19.678,11.266 C 36.807,5.475 31.363,12.051 25.92,18.623 17.281,12.415 8.64,6.206 0,0"
             style="fill:#92b6d9;fill-opacity:1;fill-rule:evenodd;stroke:none"
             id="path75150" />
        </g>
        <g
           id="g75152"
           transform="translate(462.7041,182.7559)">
          <path
             d="m 0,0 c -5.782,-13.835 -18.49,-23.665 -41.001,-27.817 -37.764,-4.422 -41.092,-21.065 -50.189,-35.661 16.728,-0.66 33.459,-1.319 50.189,-1.98 3.523,4.401 7.044,8.805 10.566,13.208 v -15.851 c 8.805,-0.879 17.61,-1.76 26.414,-2.641 1.541,2.861 3.084,5.723 4.625,8.585 1.54,-3.962 3.081,-7.924 4.621,-11.886 12.108,-1.762 24.215,-3.523 36.321,-5.284 -12.237,18.889 -19.94,39.871 -9.244,69.341 C 72.69,4.594 69.343,51.138 31.362,79.587 25.901,61.774 29.84,31.6 24.376,13.787 16.251,9.191 8.124,4.596 0,0"
             style="fill:#92b6d9;fill-opacity:1;fill-rule:evenodd;stroke:none"
             id="path75154" />
        </g>
        <g
           id="g75156"
           transform="translate(499.4258,111.4863)">
          <path
             d="M 0,0 C -9.206,16.858 -13.62,35.93 -4.42,61.283 19.26,69.832 27.899,89.37 23.344,109.806 21.617,87.749 6.314,73.006 -18.289,63.267 -25.028,25.392 -16.159,7.931 0,0"
             style="fill:#749bc2;fill-opacity:1;fill-rule:evenodd;stroke:none"
             id="path75158" />
        </g>
        <g
           id="g75160"
           transform="translate(265.3232,350.416)">
          <path
             d="M 0,0 C -53.24,30.562 -0.855,93.633 48.358,49.809 77.212,21.6 141.953,-67.678 190.392,-85.007 139.505,-88.379 41.191,-21.186 0,0"
             style="fill:#a3c5e6;fill-opacity:1;fill-rule:evenodd;stroke:none"
             id="path75162" />
        </g>
      </g>
    </g>
  </g>
</svg>
